<svg width="34" height="34" viewBox="0 0 34 34" fill="none" xmlns="http://www.w3.org/2000/svg">
<g filter="url(#filter0_d_6512_2022)">
<rect y="0.72998" width="30" height="30" rx="15" fill="#FFC224" shape-rendering="crispEdges"/>
<rect x="0.5" y="1.22998" width="29" height="29" rx="14.5" stroke="#282568" shape-rendering="crispEdges"/>
<g clip-path="url(#clip0_6512_2022)">
<path d="M7.69333 21.0632C7.55111 21.0632 7.41778 21.0277 7.29333 20.9566C7.16889 20.8855 7.08889 20.7877 7.05333 20.6632C7.01778 20.5388 7.00889 20.4055 7.02667 20.2632C7.04444 20.121 7.10667 20.0143 7.21333 19.9432L11.3733 15.7299L7.21333 11.5166C7.07111 11.4099 7 11.2588 7 11.0632C7 10.8677 7.06222 10.7077 7.18667 10.5832C7.31111 10.4588 7.47111 10.3966 7.66667 10.3966C7.86222 10.3966 8.01333 10.4677 8.12 10.6099L12.8133 15.2499C12.92 15.3921 12.9733 15.5521 12.9733 15.7299C12.9733 15.9077 12.92 16.0677 12.8133 16.2099L8.12 20.8499C8.01333 20.9921 7.85333 21.0632 7.64 21.0632H7.69333Z" fill="#161439"/>
</g>
</g>
<defs>
<filter id="filter0_d_6512_2022" x="0" y="0.72998" width="34" height="33" filterUnits="userSpaceOnUse" color-interpolation-filters="sRGB">
<feFlood flood-opacity="0" result="BackgroundImageFix"/>
<feColorMatrix in="SourceAlpha" type="matrix" values="0 0 0 0 0 0 0 0 0 0 0 0 0 0 0 0 0 0 127 0" result="hardAlpha"/>
<feOffset dx="4" dy="3"/>
<feComposite in2="hardAlpha" operator="out"/>
<feColorMatrix type="matrix" values="0 0 0 0 0 0 0 0 0 0 0 0 0 0 0 0 0 0 0.25 0"/>
<feBlend mode="normal" in2="BackgroundImageFix" result="effect1_dropShadow_6512_2022"/>
<feBlend mode="normal" in="SourceGraphic" in2="effect1_dropShadow_6512_2022" result="shape"/>
</filter>
<clipPath id="clip0_6512_2022">
<rect width="16" height="16" fill="white" transform="matrix(1 0 0 -1 7 23.73)"/>
</clipPath>
</defs>
</svg>
